<?xml version="1.0" encoding="UTF-8" standalone="no"?>
<!DOCTYPE svg PUBLIC "-//W3C//DTD SVG 1.1//EN"
 "http://www.w3.org/Graphics/SVG/1.1/DTD/svg11.dtd">
<!-- Generated by graphviz version 2.47.0 (20210316.0004)
 -->
<!-- Title: dependencies Pages: 1 -->
<svg width="2104pt" height="284pt"
 viewBox="0.00 0.00 2104.00 284.00" xmlns="http://www.w3.org/2000/svg" xmlns:xlink="http://www.w3.org/1999/xlink">
<g id="graph0" class="graph" transform="scale(1 1) rotate(0) translate(4 280)">
<title>dependencies</title>
<polygon fill="white" stroke="transparent" points="-4,4 -4,-280 2100,-280 2100,4 -4,4"/>
<text text-anchor="start" x="1027.01" y="-42.4" font-family="sans-serif" font-weight="bold" font-size="14.00">Legend</text>
<polygon fill="#ffffb3" stroke="transparent" points="814,-10 814,-30 834,-30 834,-10 814,-10"/>
<text text-anchor="start" x="837.63" y="-15.4" font-family="sans-serif" font-size="14.00"> &#160;Declarations</text>
<polygon fill="#8dd3c7" stroke="transparent" points="927,-10 927,-30 947,-30 947,-10 927,-10"/>
<text text-anchor="start" x="950.73" y="-15.4" font-family="sans-serif" font-size="14.00"> &#160;Module</text>
<polygon fill="#80b1d3" stroke="transparent" points="1013,-10 1013,-30 1033,-30 1033,-10 1013,-10"/>
<text text-anchor="start" x="1036.78" y="-15.4" font-family="sans-serif" font-size="14.00"> &#160;Bootstrap</text>
<polygon fill="#fdb462" stroke="transparent" points="1110,-10 1110,-30 1130,-30 1130,-10 1110,-10"/>
<text text-anchor="start" x="1133.67" y="-15.4" font-family="sans-serif" font-size="14.00"> &#160;Providers</text>
<polygon fill="#fb8072" stroke="transparent" points="1206,-10 1206,-30 1226,-30 1226,-10 1206,-10"/>
<text text-anchor="start" x="1229.73" y="-15.4" font-family="sans-serif" font-size="14.00"> &#160;Exports</text>
<g id="clust1" class="cluster">
<title>cluster_AppModule</title>
<polygon fill="none" stroke="black" stroke-dasharray="1,5" points="8,-70 8,-268 2088,-268 2088,-70 8,-70"/>
</g>
<g id="clust16" class="cluster">
<title>cluster_AppModule_imports</title>
<polygon fill="none" stroke="black" points="1936,-78 1936,-130 2080,-130 2080,-78 1936,-78"/>
</g>
<g id="clust18" class="cluster">
<title>cluster_AppModule_bootstrap</title>
<polygon fill="none" stroke="black" points="1055,-208 1055,-260 1179,-260 1179,-208 1055,-208"/>
</g>
<g id="clust2" class="cluster">
<title>cluster_AppModule_declarations</title>
<polygon fill="none" stroke="black" points="16,-78 16,-130 1928,-130 1928,-78 16,-78"/>
</g>
<!-- AlertasComponent -->
<g id="node1" class="node">
<title>AlertasComponent</title>
<polygon fill="#ffffb3" stroke="black" points="1919.75,-122 1798.25,-122 1798.25,-86 1919.75,-86 1919.75,-122"/>
<text text-anchor="middle" x="1859" y="-99.8" font-family="Times,serif" font-size="14.00">AlertasComponent</text>
</g>
<!-- AppModule -->
<g id="node14" class="node">
<title>AppModule</title>
<polygon fill="#8dd3c7" stroke="black" points="1158.66,-187 1155.66,-191 1134.66,-191 1131.66,-187 1075.34,-187 1075.34,-151 1158.66,-151 1158.66,-187"/>
<text text-anchor="middle" x="1117" y="-164.8" font-family="Times,serif" font-size="14.00">AppModule</text>
</g>
<!-- AlertasComponent&#45;&gt;AppModule -->
<g id="edge1" class="edge">
<title>AlertasComponent&#45;&gt;AppModule</title>
<path fill="none" stroke="black" d="M1859,-122.04C1859,-143.66 1859,-177 1859,-177 1859,-177 1168.75,-177 1168.75,-177"/>
<polygon fill="black" stroke="black" points="1168.75,-173.5 1158.75,-177 1168.75,-180.5 1168.75,-173.5"/>
</g>
<!-- AppComponent -->
<g id="node2" class="node">
<title>AppComponent</title>
<polygon fill="#ffffb3" stroke="black" points="1779.94,-122 1674.06,-122 1674.06,-86 1779.94,-86 1779.94,-122"/>
<text text-anchor="middle" x="1727" y="-99.8" font-family="Times,serif" font-size="14.00">AppComponent</text>
</g>
<!-- AppComponent&#45;&gt;AppModule -->
<g id="edge2" class="edge">
<title>AppComponent&#45;&gt;AppModule</title>
<path fill="none" stroke="black" d="M1727,-122.22C1727,-142.37 1727,-172 1727,-172 1727,-172 1168.93,-172 1168.93,-172"/>
<polygon fill="black" stroke="black" points="1168.93,-168.5 1158.93,-172 1168.93,-175.5 1168.93,-168.5"/>
</g>
<!-- CadastroComponent -->
<g id="node3" class="node">
<title>CadastroComponent</title>
<polygon fill="#ffffb3" stroke="black" points="1656.59,-122 1525.41,-122 1525.41,-86 1656.59,-86 1656.59,-122"/>
<text text-anchor="middle" x="1591" y="-99.8" font-family="Times,serif" font-size="14.00">CadastroComponent</text>
</g>
<!-- CadastroComponent&#45;&gt;AppModule -->
<g id="edge3" class="edge">
<title>CadastroComponent&#45;&gt;AppModule</title>
<path fill="none" stroke="black" d="M1591,-122.22C1591,-140.83 1591,-167 1591,-167 1591,-167 1169.06,-167 1169.06,-167"/>
<polygon fill="black" stroke="black" points="1169.06,-163.5 1159.06,-167 1169.06,-170.5 1169.06,-163.5"/>
</g>
<!-- FooterComponent -->
<g id="node4" class="node">
<title>FooterComponent</title>
<polygon fill="#ffffb3" stroke="black" points="1507.88,-122 1390.12,-122 1390.12,-86 1507.88,-86 1507.88,-122"/>
<text text-anchor="middle" x="1449" y="-99.8" font-family="Times,serif" font-size="14.00">FooterComponent</text>
</g>
<!-- FooterComponent&#45;&gt;AppModule -->
<g id="edge4" class="edge">
<title>FooterComponent&#45;&gt;AppModule</title>
<path fill="none" stroke="black" d="M1449,-122.03C1449,-139.06 1449,-162 1449,-162 1449,-162 1168.71,-162 1168.71,-162"/>
<polygon fill="black" stroke="black" points="1168.71,-158.5 1158.71,-162 1168.71,-165.5 1168.71,-158.5"/>
</g>
<!-- InicioComponent -->
<g id="node5" class="node">
<title>InicioComponent</title>
<polygon fill="#ffffb3" stroke="black" points="1371.99,-122 1258.01,-122 1258.01,-86 1371.99,-86 1371.99,-122"/>
<text text-anchor="middle" x="1315" y="-99.8" font-family="Times,serif" font-size="14.00">InicioComponent</text>
</g>
<!-- InicioComponent&#45;&gt;AppModule -->
<g id="edge5" class="edge">
<title>InicioComponent&#45;&gt;AppModule</title>
<path fill="none" stroke="black" d="M1315,-122.24C1315,-137.57 1315,-157 1315,-157 1315,-157 1168.99,-157 1168.99,-157"/>
<polygon fill="black" stroke="black" points="1168.99,-153.5 1158.99,-157 1168.99,-160.5 1168.99,-153.5"/>
</g>
<!-- LoginComponent -->
<g id="node6" class="node">
<title>LoginComponent</title>
<polygon fill="#ffffb3" stroke="black" points="1240.28,-122 1125.72,-122 1125.72,-86 1240.28,-86 1240.28,-122"/>
<text text-anchor="middle" x="1183" y="-99.8" font-family="Times,serif" font-size="14.00">LoginComponent</text>
</g>
<!-- LoginComponent&#45;&gt;AppModule -->
<g id="edge6" class="edge">
<title>LoginComponent&#45;&gt;AppModule</title>
<path fill="none" stroke="black" d="M1142.22,-122.11C1142.22,-122.11 1142.22,-140.99 1142.22,-140.99"/>
<polygon fill="black" stroke="black" points="1138.72,-140.99 1142.22,-150.99 1145.72,-140.99 1138.72,-140.99"/>
</g>
<!-- MenuComponent -->
<g id="node7" class="node">
<title>MenuComponent</title>
<polygon fill="#ffffb3" stroke="black" points="1107.99,-122 994.01,-122 994.01,-86 1107.99,-86 1107.99,-122"/>
<text text-anchor="middle" x="1051" y="-99.8" font-family="Times,serif" font-size="14.00">MenuComponent</text>
</g>
<!-- MenuComponent&#45;&gt;AppModule -->
<g id="edge7" class="edge">
<title>MenuComponent&#45;&gt;AppModule</title>
<path fill="none" stroke="black" d="M1091.58,-122.11C1091.58,-122.11 1091.58,-140.99 1091.58,-140.99"/>
<polygon fill="black" stroke="black" points="1088.08,-140.99 1091.58,-150.99 1095.08,-140.99 1088.08,-140.99"/>
</g>
<!-- PostagemDeleteComponent -->
<g id="node8" class="node">
<title>PostagemDeleteComponent</title>
<polygon fill="#ffffb3" stroke="black" points="976.3,-122 803.7,-122 803.7,-86 976.3,-86 976.3,-122"/>
<text text-anchor="middle" x="890" y="-99.8" font-family="Times,serif" font-size="14.00">PostagemDeleteComponent</text>
</g>
<!-- PostagemDeleteComponent&#45;&gt;AppModule -->
<g id="edge8" class="edge">
<title>PostagemDeleteComponent&#45;&gt;AppModule</title>
<path fill="none" stroke="black" d="M890,-122.24C890,-137.57 890,-157 890,-157 890,-157 1065.1,-157 1065.1,-157"/>
<polygon fill="black" stroke="black" points="1065.1,-160.5 1075.1,-157 1065.1,-153.5 1065.1,-160.5"/>
</g>
<!-- PostagemEditComponent -->
<g id="node9" class="node">
<title>PostagemEditComponent</title>
<polygon fill="#ffffb3" stroke="black" points="785.6,-122 626.4,-122 626.4,-86 785.6,-86 785.6,-122"/>
<text text-anchor="middle" x="706" y="-99.8" font-family="Times,serif" font-size="14.00">PostagemEditComponent</text>
</g>
<!-- PostagemEditComponent&#45;&gt;AppModule -->
<g id="edge9" class="edge">
<title>PostagemEditComponent&#45;&gt;AppModule</title>
<path fill="none" stroke="black" d="M706,-122.03C706,-139.06 706,-162 706,-162 706,-162 1065.33,-162 1065.33,-162"/>
<polygon fill="black" stroke="black" points="1065.33,-165.5 1075.33,-162 1065.33,-158.5 1065.33,-165.5"/>
</g>
<!-- TemaComponent -->
<g id="node10" class="node">
<title>TemaComponent</title>
<polygon fill="#ffffb3" stroke="black" points="608.7,-122 495.3,-122 495.3,-86 608.7,-86 608.7,-122"/>
<text text-anchor="middle" x="552" y="-99.8" font-family="Times,serif" font-size="14.00">TemaComponent</text>
</g>
<!-- TemaComponent&#45;&gt;AppModule -->
<g id="edge10" class="edge">
<title>TemaComponent&#45;&gt;AppModule</title>
<path fill="none" stroke="black" d="M552,-122.22C552,-140.83 552,-167 552,-167 552,-167 1064.99,-167 1064.99,-167"/>
<polygon fill="black" stroke="black" points="1064.99,-170.5 1074.99,-167 1064.99,-163.5 1064.99,-170.5"/>
</g>
<!-- TemaDeleteComponent -->
<g id="node11" class="node">
<title>TemaDeleteComponent</title>
<polygon fill="#ffffb3" stroke="black" points="477.74,-122 328.26,-122 328.26,-86 477.74,-86 477.74,-122"/>
<text text-anchor="middle" x="403" y="-99.8" font-family="Times,serif" font-size="14.00">TemaDeleteComponent</text>
</g>
<!-- TemaDeleteComponent&#45;&gt;AppModule -->
<g id="edge11" class="edge">
<title>TemaDeleteComponent&#45;&gt;AppModule</title>
<path fill="none" stroke="black" d="M403,-122.22C403,-142.37 403,-172 403,-172 403,-172 1065.26,-172 1065.26,-172"/>
<polygon fill="black" stroke="black" points="1065.26,-175.5 1075.26,-172 1065.26,-168.5 1065.26,-175.5"/>
</g>
<!-- TemaEditComponent -->
<g id="node12" class="node">
<title>TemaEditComponent</title>
<polygon fill="#ffffb3" stroke="black" points="310.04,-122 173.96,-122 173.96,-86 310.04,-86 310.04,-122"/>
<text text-anchor="middle" x="242" y="-99.8" font-family="Times,serif" font-size="14.00">TemaEditComponent</text>
</g>
<!-- TemaEditComponent&#45;&gt;AppModule -->
<g id="edge12" class="edge">
<title>TemaEditComponent&#45;&gt;AppModule</title>
<path fill="none" stroke="black" d="M242,-122.04C242,-143.66 242,-177 242,-177 242,-177 1065.09,-177 1065.09,-177"/>
<polygon fill="black" stroke="black" points="1065.09,-180.5 1075.09,-177 1065.09,-173.5 1065.09,-180.5"/>
</g>
<!-- UserEditComponent -->
<g id="node13" class="node">
<title>UserEditComponent</title>
<polygon fill="#ffffb3" stroke="black" points="155.59,-122 24.41,-122 24.41,-86 155.59,-86 155.59,-122"/>
<text text-anchor="middle" x="90" y="-99.8" font-family="Times,serif" font-size="14.00">UserEditComponent</text>
</g>
<!-- UserEditComponent&#45;&gt;AppModule -->
<g id="edge13" class="edge">
<title>UserEditComponent&#45;&gt;AppModule</title>
<path fill="none" stroke="black" d="M90,-122.09C90,-145.13 90,-182 90,-182 90,-182 1065.15,-182 1065.15,-182"/>
<polygon fill="black" stroke="black" points="1065.15,-185.5 1075.15,-182 1065.15,-178.5 1065.15,-185.5"/>
</g>
<!-- AppComponent  -->
<g id="node16" class="node">
<title>AppComponent </title>
<polygon fill="#80b1d3" stroke="black" points="1171.44,-252 1062.56,-252 1062.56,-216 1171.44,-216 1171.44,-252"/>
<text text-anchor="middle" x="1117" y="-229.8" font-family="Times,serif" font-size="14.00">AppComponent </text>
</g>
<!-- AppModule&#45;&gt;AppComponent  -->
<g id="edge15" class="edge">
<title>AppModule&#45;&gt;AppComponent </title>
<path fill="none" stroke="black" stroke-dasharray="1,5" d="M1117,-187.11C1117,-187.11 1117,-205.99 1117,-205.99"/>
<polygon fill="black" stroke="black" points="1113.5,-205.99 1117,-215.99 1120.5,-205.99 1113.5,-205.99"/>
</g>
<!-- AppRoutingModule -->
<g id="node15" class="node">
<title>AppRoutingModule</title>
<polygon fill="#8dd3c7" stroke="black" points="2072.27,-122 2069.27,-126 2048.27,-126 2045.27,-122 1943.73,-122 1943.73,-86 2072.27,-86 2072.27,-122"/>
<text text-anchor="middle" x="2008" y="-99.8" font-family="Times,serif" font-size="14.00">AppRoutingModule</text>
</g>
<!-- AppRoutingModule&#45;&gt;AppModule -->
<g id="edge14" class="edge">
<title>AppRoutingModule&#45;&gt;AppModule</title>
<path fill="none" stroke="black" d="M2008,-122.09C2008,-145.13 2008,-182 2008,-182 2008,-182 1168.78,-182 1168.78,-182"/>
<polygon fill="black" stroke="black" points="1168.78,-178.5 1158.78,-182 1168.78,-185.5 1168.78,-178.5"/>
</g>
</g>
</svg>
